<svg width="7" height="7" viewBox="0 0 7 7" fill="none" xmlns="http://www.w3.org/2000/svg">
<path d="M2.84025 6.74155C2.80642 6.702 2.66175 6.55265 2.54275 6.41354C1.79433 5.59795 0.569333 3.47034 0.195417 2.35675C0.135333 2.18763 0.00816667 1.76006 0 1.53161C0 1.31271 0.042 1.10404 0.127167 0.90492C0.246167 0.656698 0.433417 0.457574 0.6545 0.348466C0.807917 0.278227 1.267 0.169118 1.27517 0.169118C1.77742 0.0600097 2.5935 0 3.49533 0C4.35458 0 5.13742 0.0600097 5.64725 0.149342C5.65542 0.159571 6.22592 0.26868 6.42133 0.388018C6.77833 0.606917 7 1.03449 7 1.49206V1.53161C6.99125 1.82962 6.76958 2.45631 6.76142 2.45631C6.38692 3.50989 5.222 5.58841 4.44792 6.42377C4.44792 6.42377 4.249 6.65904 4.12475 6.76132C3.94625 6.9209 3.72517 7 3.50408 7C3.25733 7 3.0275 6.91067 2.84025 6.74155Z" fill="#333333"/>
</svg>
